<?xml version="1.0" standalone="no"?>
<!DOCTYPE svg PUBLIC "-//W3C//DTD SVG 20010904//EN"
 "http://www.w3.org/TR/2001/REC-SVG-20010904/DTD/svg10.dtd">
<svg version="1.0" xmlns="http://www.w3.org/2000/svg"
 width="300.000000pt" height="300.000000pt" viewBox="0 0 300.000000 300.000000"
 preserveAspectRatio="xMidYMid meet">
<metadata>
Created by potrace 1.11, written by Peter Selinger 2001-2013
</metadata>
<g transform="translate(0.000000,300.000000) scale(0.100000,-0.100000)"
fill="#000000" stroke="none">
<path d="M1375 2994 c-377 -41 -674 -181 -931 -438 -224 -225 -354 -469 -416
-779 -31 -158 -31 -396 0 -554 62 -310 192 -554 416 -779 293 -292 643 -438
1056 -438 185 0 305 19 471 74 233 77 404 184 585 364 228 228 363 488 421
806 23 130 23 372 -1 505 -56 313 -193 573 -420 801 -227 226 -496 368 -796
418 -97 17 -312 28 -385 20z m-59 -1184 c94 -173 175 -314 179 -313 5 0 85
142 179 315 l171 313 228 3 227 2 0 -650 0 -650 -195 0 -195 0 -2 431 -3 432
-142 -274 -141 -274 -139 -2 -138 -3 -135 266 c-74 146 -138 268 -142 270 -5
3 -8 -186 -8 -420 l0 -426 -185 0 -185 0 0 650 0 650 227 -2 228 -3 171 -315z"/>
</g>
</svg>
